<?xml version="1.0" encoding="utf-8"?>
<!-- Generator: Adobe Illustrator 19.2.1, SVG Export Plug-In . SVG Version: 6.00 Build 0)  -->
<svg version="1.1" id="Layer_1" xmlns="http://www.w3.org/2000/svg" xmlns:xlink="http://www.w3.org/1999/xlink" x="0px" y="0px"
	 viewBox="0 0 24 24" style="enable-background:new 0 0 24 24;" xml:space="preserve">
<path d="M12,1L3,5v6c0,5.5,3.8,10.7,9,12c5.2-1.3,9-6.5,9-12V5L12,1z M15.3,13c-1.5,2.1-2.9,4.2-4.3,6.3c-0.2,0.4-0.5,1.1-1.2,0.7
	s-0.3-0.9-0.2-1.4c0.3-1.5,0.7-2.9,1.1-4.3c0.2-0.6-0.1-0.7-0.5-0.8c-0.6-0.1-1.2-0.2-1.7-0.3C7.9,13,7.7,12.7,8,12.1
	c1.8-2.7,3.7-5.3,5.5-8c0.2-0.2,0.5-0.4,0.8-0.3c0.2,0.1,0.2,0.3,0.2,0.7c-0.3,1.5-0.7,3.2-1.2,4.7c-0.2,0.7-0.1,1,0.7,1.2
	C16.9,10.8,16.6,11.1,15.3,13z"/>
</svg>
