<?xml version="1.0" encoding="utf-8"?>
<!-- Generator: Adobe Illustrator 21.1.0, SVG Export Plug-In . SVG Version: 6.00 Build 0)  -->
<svg version="1.1" id="Layer_1" xmlns="http://www.w3.org/2000/svg" xmlns:xlink="http://www.w3.org/1999/xlink" x="0px" y="0px"
	 viewBox="0 0 24 24" style="enable-background:new 0 0 24 24;" xml:space="preserve">
<path d="M12.5,22c-3,0-5.5-2.5-5.5-5.5V6c0-2.2,1.8-4,4-4s4,1.8,4,4v8.5c0,1.4-1.1,2.5-2.5,2.5S10,15.9,10,14.5V7h2v7.6
	c0,0.6,1,0.6,1,0V6c0-1.1-0.9-2-2-2S9,4.9,9,6v10.5c0,1.9,1.6,3.5,3.5,3.5s3.5-1.6,3.5-3.5V7h2v9.5C18,19.5,15.5,22,12.5,22z"/>
</svg>
