<?xml version="1.0" encoding="utf-8"?>
<!-- Generator: Adobe Illustrator 19.2.1, SVG Export Plug-In . SVG Version: 6.00 Build 0)  -->
<svg version="1.1" id="Layer_1" xmlns="http://www.w3.org/2000/svg" xmlns:xlink="http://www.w3.org/1999/xlink" x="0px" y="0px"
	 viewBox="0 0 24 24" style="enable-background:new 0 0 24 24;" xml:space="preserve">
<path d="M12,0.8C5.8,0.8,0.8,5.8,0.8,12s5,11.2,11.2,11.2s11.2-5,11.2-11.2S18.2,0.8,12,0.8z M16,13.2c-1.8,2.5-3.5,5.1-5.2,7.6
	c-0.3,0.5-0.6,1.3-1.4,0.9c-0.8-0.4-0.4-1.1-0.2-1.7c0.4-1.8,0.8-3.5,1.3-5.2c0.2-0.7-0.1-0.9-0.6-1c-0.7-0.1-1.4-0.2-2-0.4
	c-0.7-0.2-1-0.6-0.6-1.3c2.2-3.2,4.4-6.4,6.6-9.6c0.2-0.3,0.6-0.5,1-0.4c0.5,0.1,0.6,0.5,0.5,1c-0.4,1.8-0.8,3.8-1.4,5.7
	c-0.3,0.9-0.1,1.2,0.9,1.4C17.9,10.6,17.5,11,16,13.2z"/>
</svg>
