<?xml version="1.0" encoding="utf-8"?>
<!-- Generator: Adobe Illustrator 19.2.1, SVG Export Plug-In . SVG Version: 6.00 Build 0)  -->
<svg version="1.1" id="Layer_1" xmlns="http://www.w3.org/2000/svg" xmlns:xlink="http://www.w3.org/1999/xlink" x="0px" y="0px"
	 viewBox="0 0 24 24" style="enable-background:new 0 0 24 24;" xml:space="preserve">
<path d="M15.2,3.1c-0.4,1.8-0.8,3.8-1.4,5.7c-0.3,0.9-0.1,1.2,0.9,1.4c3.2,0.5,2.9,0.8,1.3,3.1c-1.8,2.5-3.5,5.1-5.2,7.6
	c-0.3,0.5-0.6,1.3-1.4,0.9c-0.8-0.4-0.4-1.1-0.2-1.7c0.4-1.8,0.8-3.5,1.3-5.2c0.2-0.7-0.1-0.9-0.6-1c-0.7-0.1-1.4-0.2-2-0.4
	c-0.7-0.2-1-0.6-0.6-1.3c2.2-3.2,4.4-6.4,6.6-9.6c0.2-0.3,0.6-0.5,1-0.4C15.1,2.3,15.2,2.6,15.2,3.1z"/>
</svg>
