<?xml version="1.0" encoding="utf-8"?>
<!-- Generator: Adobe Illustrator 19.2.1, SVG Export Plug-In . SVG Version: 6.00 Build 0)  -->
<svg version="1.1" id="Layer_1" xmlns="http://www.w3.org/2000/svg" xmlns:xlink="http://www.w3.org/1999/xlink" x="0px" y="0px"
	 viewBox="0 0 24 24" style="enable-background:new 0 0 24 24;" xml:space="preserve">
<path d="M7.7,10.9v2.6c0,0.4-0.1,0.7-0.4,0.9c-0.3,0.2-0.6,0.4-0.9,0.4H3.9c-0.4,0-0.7-0.1-0.9-0.4s-0.4-0.6-0.4-0.9v-2.6
	c0-0.4,0.1-0.7,0.4-0.9c0.2-0.2,0.6-0.4,0.9-0.4h2.6c0.4,0,0.7,0.1,0.9,0.4C7.6,10.2,7.7,10.5,7.7,10.9z M14.6,10.9v2.6
	c0,0.4-0.1,0.7-0.4,0.9c-0.2,0.2-0.6,0.4-0.9,0.4h-2.6c-0.4,0-0.7-0.1-0.9-0.4c-0.3-0.2-0.4-0.6-0.4-0.9v-2.6c0-0.4,0.1-0.7,0.4-0.9
	c0.2-0.2,0.6-0.4,0.9-0.4h2.6c0.4,0,0.7,0.1,0.9,0.4C14.4,10.2,14.6,10.5,14.6,10.9z M21.4,10.9v2.6c0,0.4-0.1,0.7-0.4,0.9
	s-0.6,0.4-0.9,0.4h-2.6c-0.4,0-0.7-0.1-0.9-0.4c-0.2-0.2-0.4-0.6-0.4-0.9v-2.6c0-0.4,0.1-0.7,0.4-0.9c0.2-0.2,0.6-0.4,0.9-0.4h2.6
	c0.4,0,0.7,0.1,0.9,0.4C21.3,10.2,21.4,10.5,21.4,10.9z"/>
</svg>
