<?xml version="1.0" encoding="utf-8"?>
<!-- Generator: Adobe Illustrator 19.2.1, SVG Export Plug-In . SVG Version: 6.00 Build 0)  -->
<svg version="1.1" id="Layer_1" xmlns="http://www.w3.org/2000/svg" xmlns:xlink="http://www.w3.org/1999/xlink" x="0px" y="0px"
	 viewBox="0 0 24 24" style="enable-background:new 0 0 24 24;" xml:space="preserve">
<path d="M6.1,17.5v0.6c0,0.2-0.2,0.4-0.4,0.4H3.2c-0.2,0-0.4-0.2-0.4-0.4v-0.6c0-0.2,0.2-0.4,0.4-0.4h2.5
	C5.9,17.1,6.1,17.3,6.1,17.5z M12.3,12.2v0.6c0,0.2-0.2,0.4-0.4,0.4H3.2c-0.2,0-0.4-0.2-0.4-0.4v-0.6c0-0.2,0.2-0.4,0.4-0.4h8.6
	C12.1,11.8,12.3,12,12.3,12.2z M4.5,6.9v0.6c0,0.2-0.2,0.4-0.4,0.4H3.2C3,7.9,2.8,7.7,2.8,7.5V6.9c0-0.2,0.2-0.4,0.4-0.4h0.9
	C4.3,6.5,4.5,6.7,4.5,6.9z M21.3,17.5v0.6c0,0.2-0.2,0.4-0.4,0.4h-7.1c-0.2,0-0.4-0.2-0.4-0.4v-0.6c0-0.2,0.2-0.4,0.4-0.4h7.1
	C21.1,17.1,21.3,17.3,21.3,17.5z M21.3,12.2v0.6c0,0.2-0.2,0.4-0.4,0.4H20c-0.2,0-0.4-0.2-0.4-0.4v-0.6c0-0.2,0.2-0.4,0.4-0.4h0.9
	C21.1,11.8,21.3,12,21.3,12.2z M21.3,6.9v0.6c0,0.2-0.2,0.4-0.4,0.4h-8.6c-0.2,0-0.4-0.2-0.4-0.4V6.9c0-0.2,0.2-0.4,0.4-0.4h8.6
	C21.1,6.5,21.3,6.7,21.3,6.9z M9.7,15.5c-1.3,0-2.3,1-2.3,2.3s1,2.3,2.3,2.3s2.3-1,2.3-2.3S11,15.5,9.7,15.5z M15.9,10.2
	c-1.3,0-2.3,1-2.3,2.3c0,1.3,1,2.3,2.3,2.3s2.3-1,2.3-2.3C18.2,11.2,17.2,10.2,15.9,10.2z M8.1,4.9c-1.3,0-2.3,1-2.3,2.3
	s1,2.3,2.3,2.3s2.3-1,2.3-2.3S9.4,4.9,8.1,4.9z"/>
</svg>
