<?xml version="1.0" encoding="utf-8"?>
<!-- Generator: Adobe Illustrator 19.2.1, SVG Export Plug-In . SVG Version: 6.00 Build 0)  -->
<svg version="1.1" id="Layer_1" xmlns="http://www.w3.org/2000/svg" xmlns:xlink="http://www.w3.org/1999/xlink" x="0px" y="0px"
	 viewBox="0 0 24 24" style="enable-background:new 0 0 24 24;" xml:space="preserve">
<path d="M15.8,12.2c0,1.9-0.4,3.5-1.2,5s-1.9,2.6-3.3,3.4c-1.4,0.8-3.1,1.2-4.9,1.2c-1.3,0-2.6-0.3-3.8-0.8S0.3,19.8-0.6,19
	c-0.9-0.9-1.6-1.9-2.1-3.1s-0.8-2.5-0.8-3.8s0.3-2.6,0.8-3.8S-1.4,5.9-0.6,5S1.4,3.5,2.6,3s2.5-0.8,3.8-0.8c2.6,0,4.7,0.9,6.6,2.6
	l-2.7,2.6c-1-1-2.3-1.5-3.9-1.5c-1.1,0-2.1,0.3-3,0.8S1.7,7.9,1.1,8.9s-0.8,2-0.8,3.1s0.3,2.2,0.8,3.1s1.3,1.7,2.2,2.3
	c0.9,0.6,1.9,0.8,3,0.8c0.7,0,1.4-0.1,2-0.3c0.6-0.2,1.1-0.5,1.5-0.8c0.4-0.3,0.8-0.7,1.1-1.1c0.3-0.4,0.5-0.8,0.7-1.1
	s0.2-0.7,0.3-1H6.4v-3.4h9.3C15.8,11.2,15.8,11.7,15.8,12.2z M27.4,10.6v2.8h-2.8v2.8h-2.8v-2.8H19v-2.8h2.8V7.8h2.8v2.8H27.4z"/>
</svg>
