<?xml version="1.0" encoding="utf-8"?>
<!-- Generator: Adobe Illustrator 21.0.0, SVG Export Plug-In . SVG Version: 6.00 Build 0)  -->
<svg version="1.1" id="Layer_1" xmlns="http://www.w3.org/2000/svg" xmlns:xlink="http://www.w3.org/1999/xlink" x="0px" y="0px"
	 viewBox="0 0 26 26" style="enable-background:new 0 0 26 26;" xml:space="preserve">
<path d="M21.3,20.4v-9h-1.9c0.2,0.6,0.3,1.2,0.3,1.8c0,1.2-0.3,2.3-0.9,3.2c-0.6,1-1.4,1.8-2.4,2.4s-2.1,0.9-3.3,0.9
	c-1.8,0-3.4-0.6-4.7-1.9s-2-2.8-2-4.6c0-0.6,0.1-1.2,0.3-1.8h-2v9c0,0.2,0.1,0.4,0.2,0.6s0.4,0.2,0.6,0.2h14.9
	c0.2,0,0.4-0.1,0.6-0.2C21.2,20.8,21.3,20.6,21.3,20.4z M17.3,13c0-1.2-0.4-2.1-1.3-3c-0.8-0.8-1.9-1.2-3-1.2c-1.2,0-2.2,0.4-3,1.2
	s-1.3,1.8-1.3,3s0.4,2.1,1.3,3c0.8,0.8,1.9,1.2,3,1.2c1.2,0,2.2-0.4,3-1.2C16.9,15.1,17.3,14.1,17.3,13z M21.3,7.9V5.6
	c0-0.3-0.1-0.5-0.3-0.7s-0.4-0.3-0.7-0.3h-2.4c-0.3,0-0.5,0.1-0.7,0.3s-0.3,0.4-0.3,0.7v2.3c0,0.3,0.1,0.5,0.3,0.7
	c0.2,0.2,0.4,0.3,0.7,0.3h2.4c0.3,0,0.5-0.1,0.7-0.3C21.2,8.4,21.3,8.2,21.3,7.9z M23.7,5V21c0,0.8-0.3,1.4-0.8,1.9
	s-1.2,0.8-1.9,0.8H5c-0.8,0-1.4-0.3-1.9-0.8S2.3,21.7,2.3,21V5c0-0.8,0.3-1.4,0.8-1.9S4.3,2.3,5,2.3H21c0.8,0,1.4,0.3,1.9,0.8
	S23.7,4.3,23.7,5z"/>
</svg>
