<?xml version="1.0" encoding="utf-8"?>
<!-- Generator: Adobe Illustrator 21.0.0, SVG Export Plug-In . SVG Version: 6.00 Build 0)  -->
<svg version="1.1" id="Layer_1" xmlns="http://www.w3.org/2000/svg" xmlns:xlink="http://www.w3.org/1999/xlink" x="0px" y="0px"
	 viewBox="0 0 25 25" style="enable-background:new 0 0 25 25;" xml:space="preserve">
<path d="M6.7,8.7v13.8H2.1V8.7H6.7z M6.9,4.5c0,0.7-0.2,1.2-0.7,1.7S5.1,6.8,4.4,6.8h0c-0.8,0-1.4-0.2-1.8-0.7s-0.7-1-0.7-1.7
	c0-0.7,0.2-1.3,0.7-1.7s1.1-0.7,1.9-0.7s1.4,0.2,1.9,0.7C6.7,3.2,6.9,3.8,6.9,4.5z M23.2,14.6v7.9h-4.6v-7.4c0-1-0.2-1.7-0.6-2.3
	s-1-0.8-1.8-0.8c-0.6,0-1.1,0.2-1.5,0.5s-0.7,0.7-0.9,1.2c-0.1,0.3-0.2,0.7-0.2,1.1v7.7H9.2c0-3.7,0-6.7,0-9s0-3.7,0-4.1l0-0.7h4.6
	v2h0c0.2-0.3,0.4-0.6,0.6-0.8c0.2-0.2,0.5-0.5,0.8-0.7s0.7-0.5,1.2-0.6c0.5-0.1,1-0.2,1.6-0.2c1.6,0,2.9,0.5,3.8,1.6
	S23.2,12.6,23.2,14.6z"/>
</svg>
