<?xml version="1.0" encoding="utf-8"?>
<!-- Generator: Adobe Illustrator 19.2.1, SVG Export Plug-In . SVG Version: 6.00 Build 0)  -->
<svg version="1.1" id="Layer_1" xmlns="http://www.w3.org/2000/svg" xmlns:xlink="http://www.w3.org/1999/xlink" x="0px" y="0px"
	 viewBox="0 0 24 24" style="enable-background:new 0 0 24 24;" xml:space="preserve">
<style type="text/css">
	.st0{fill:#050505;}
</style>
<path class="st0" d="M10.7,16.7c-0.1-2.4,0-4.7,0-7.1c0-0.3-0.1-0.5-0.3-0.6C9,8.4,8.3,7,8.6,5.5C8.8,4.1,10,3,11.4,2.9
	c1.6-0.2,3,0.6,3.6,2.1c0.6,1.5,0,3.3-1.5,4.1C13.1,9.2,13,9.4,13,9.8c0,2.7,0,5.4,0,8.1c0,0.6,0.1,0.7,0.6,0.5
	c0.8-0.3,1.5-0.8,2.1-1.4c0.3-0.3,0.5-0.6,0.8-0.9c0.2-0.2,0.2-0.3,0-0.5c-0.3-0.3-0.6-0.6-0.9-0.8c-0.1-0.1-0.3-0.2-0.3-0.4
	c0.1-0.2,0.3-0.2,0.4-0.2c1.3-0.2,2.5-0.4,3.8-0.5c0.4-0.1,0.8-0.1,1.1-0.2c0.3-0.1,0.5,0,0.4,0.4c-0.3,1.7-0.5,3.3-0.7,5
	c0,0.1,0,0.3-0.1,0.3c-0.1,0-0.2-0.1-0.3-0.2c-0.3-0.3-0.7-0.6-1-1c-0.3-0.3-0.4-0.3-0.7,0c-0.3,0.4-0.7,0.7-1,1.1
	c-1.3,1.4-3,2-4.9,2.1c-2.5,0.2-4.5-0.8-6.2-2.5c-0.1,0-0.1-0.1-0.2-0.1c-0.9-0.9-0.6-0.7-1.5,0.1c-0.2,0.2-0.3,0.3-0.5,0.5
	c-0.1,0.1-0.1,0.2-0.3,0.2c-0.2,0-0.1-0.2-0.2-0.3C3.3,17.3,3,15.7,2.8,14c-0.1-0.4,0-0.5,0.4-0.4c1.7,0.3,3.4,0.5,5,0.7
	c0.1,0,0.2,0,0.3,0.1c0,0.1-0.1,0.2-0.2,0.3c-0.3,0.3-0.6,0.6-1,0.9c-0.3,0.2-0.3,0.4-0.1,0.7C8,17.3,8.9,18,10,18.3
	c0.6,0.2,0.6,0.1,0.7-0.5c0-0.1,0-0.1,0-0.2C10.7,17.3,10.7,17,10.7,16.7z M11.9,7.7c0.9,0,1.6-0.7,1.6-1.6c0-0.9-0.8-1.7-1.7-1.6
	c-0.9,0-1.6,0.8-1.6,1.6C10.2,7,10.9,7.7,11.9,7.7z"/>
</svg>
