<?xml version="1.0" encoding="utf-8"?>
<!-- Generator: Adobe Illustrator 19.2.1, SVG Export Plug-In . SVG Version: 6.00 Build 0)  -->
<svg version="1.1" id="Layer_1" xmlns="http://www.w3.org/2000/svg" xmlns:xlink="http://www.w3.org/1999/xlink" x="0px" y="0px"
	 viewBox="0 0 25 25" style="enable-background:new 0 0 25 25;" xml:space="preserve">
<path d="M23.1,6c-0.6,0.9-1.3,1.6-2.2,2.2c0,0.1,0,0.3,0,0.6c0,1.2-0.2,2.3-0.5,3.5c-0.3,1.2-0.9,2.3-1.5,3.3
	c-0.7,1.1-1.5,2-2.5,2.8c-1,0.8-2.1,1.5-3.5,2c-1.3,0.5-2.8,0.7-4.3,0.7c-2.4,0-4.6-0.6-6.6-1.9c0.3,0,0.7,0.1,1,0.1
	c2,0,3.8-0.6,5.4-1.8c-0.9,0-1.8-0.3-2.5-0.9s-1.2-1.3-1.5-2.1c0.3,0,0.6,0.1,0.8,0.1c0.4,0,0.8,0,1.1-0.1c-1-0.2-1.8-0.7-2.5-1.5
	s-1-1.7-1-2.8V10c0.6,0.3,1.3,0.5,2,0.5C4.2,10.1,3.7,9.6,3.4,9S2.8,7.6,2.8,6.9c0-0.8,0.2-1.5,0.6-2.2C4.5,6,5.8,7.1,7.4,7.9
	c1.5,0.8,3.2,1.2,5,1.3c-0.1-0.3-0.1-0.7-0.1-1c0-1.2,0.4-2.2,1.3-3.1s1.9-1.3,3.1-1.3c1.3,0,2.3,0.5,3.2,1.4c1-0.2,1.9-0.5,2.7-1
	c-0.3,1-1,1.8-1.9,2.4C21.4,6.5,22.2,6.3,23.1,6z"/>
</svg>
